<svg width="197" height="64" fill="none" xmlns="http://www.w3.org/2000/svg"><path fill="#fff" fill-opacity=".05" d="M0 0h197v64H0z"/><g clip-path="url(#a)" fill="#fff"><path d="m25.37 31.868.657-4.088c.036-.217.159-.433.444-.433h3.665c.697.006 1.431.067 1.974.348a4.875 4.875 0 0 1-.042.56c-.33 2.079-2.143 3.612-4.278 3.612h-2.42Z"/><path d="M33.003 28.186a4.53 4.53 0 0 1-.047.531c-.375 2.352-2.455 4.089-4.872 4.089h-2.398a.541.541 0 0 0-.536.452l-1.166 7.24a.437.437 0 0 0 .436.502h2.568c.277 0 .491-.2.535-.442l.636-3.925a.497.497 0 0 1 .494-.415h1.527c2.417 0 4.496-1.736 4.871-4.089.266-1.67-.588-3.189-2.048-3.942Z"/><path d="M25.213 26.823a.497.497 0 0 1 .493-.415h4.344c.79.002 1.543.054 2.128.35.007-2.166-1.95-3.77-4.222-3.758h-5.254a.535.535 0 0 0-.507.451L20.01 37.074a.43.43 0 0 0 .426.515h3.049l1.73-10.766Z"/></g><path d="M45.551 32.848c2.1 0 3.883-1.509 4.209-3.554.328-2.062-1.307-3.859-3.626-3.863H42.4a.291.291 0 0 0-.29.243l-1.667 10.408c-.026.162.101.308.268.308h1.977a.291.291 0 0 0 .289-.243l.49-3.056a.291.291 0 0 1 .288-.243h1.798-.001Zm1.654-3.645c-.122.762-.72 1.323-1.865 1.323h-1.464l.443-2.772h1.438c1.185 0 1.57.688 1.448 1.449ZM58.325 28.712H56.45a.291.291 0 0 0-.29.243l-.061.383s-1.457-1.567-4.036-.51c-1.48.608-2.19 1.863-2.491 2.777 0 0-.96 2.79 1.21 4.324 0 0 2.01 1.476 4.276-.091l-.04.244c-.026.162.101.308.268.308h1.876a.291.291 0 0 0 .29-.243l1.14-7.128a.268.268 0 0 0-.267-.308h.001Zm-2.758 3.939c-.164 1.022-1.015 1.775-2.107 1.775-.216 0-.413-.03-.59-.085a1.634 1.634 0 0 1-1.138-1.852c.164-1.022 1.018-1.775 2.11-1.775.215 0 .412.03.589.085.81.256 1.268 1.022 1.136 1.852ZM72.579 32.848c2.1 0 3.883-1.509 4.209-3.554.328-2.062-1.307-3.859-3.626-3.863h-3.736a.291.291 0 0 0-.288.243L67.47 36.082a.268.268 0 0 0 .267.308h1.978a.291.291 0 0 0 .289-.243l.49-3.056a.291.291 0 0 1 .288-.243h1.798-.001Zm1.654-3.645c-.122.762-.72 1.323-1.865 1.323h-1.464l.443-2.772h1.438c1.184 0 1.57.688 1.448 1.449ZM85.353 28.712h-1.877a.291.291 0 0 0-.289.243l-.062.383s-1.456-1.567-4.036-.51c-1.479.608-2.19 1.863-2.491 2.777 0 0-.96 2.79 1.21 4.324 0 0 2.011 1.476 4.276-.091l-.04.244a.268.268 0 0 0 .268.308h1.877a.291.291 0 0 0 .289-.243l1.141-7.128a.268.268 0 0 0-.267-.308Zm-2.758 3.939c-.165 1.022-1.016 1.775-2.108 1.775-.215 0-.413-.03-.59-.085a1.634 1.634 0 0 1-1.138-1.852c.164-1.022 1.018-1.775 2.11-1.775.215 0 .413.03.59.085.809.256 1.268 1.022 1.135 1.852ZM65.214 28.889l-2.262 3.76-1.148-3.733a.291.291 0 0 0-.28-.204h-2.04a.216.216 0 0 0-.209.282l2.057 6.287-1.86 2.963c-.09.144.014.33.186.33h2.2a.367.367 0 0 0 .312-.174l5.746-9.36a.216.216 0 0 0-.187-.327H65.53a.367.367 0 0 0-.314.176h-.002ZM87.464 25.674l-1.668 10.408c-.026.162.101.308.268.308h1.976a.291.291 0 0 0 .29-.243l1.667-10.408a.268.268 0 0 0-.268-.308h-1.976a.291.291 0 0 0-.29.243ZM99.755 31h1.008v-4.329h1.521v-.9h-4.05v.9h1.521V31Zm3.438 0h1.008v-2.07h2.385V31h1.008v-5.229h-1.008v2.259h-2.385v-2.259h-1.008V31Zm5.73 0h3.69v-.9h-2.682v-1.197h2.034v-.9h-2.034v-1.332h2.52v-.9h-3.528V31Zm7.163 0h1.008v-1.8h.927c1.215 0 2.016-.549 2.016-1.701 0-.99-.567-1.728-1.908-1.728h-2.043V31Zm1.008-2.7v-1.629h.972c.63 0 .909.315.909.801 0 .504-.279.828-.963.828h-.918Zm3.914 2.7h1.008v-1.8h.666l1.287 1.8h1.242l-1.386-1.899c.783-.243 1.188-.792 1.188-1.602 0-.99-.585-1.728-1.917-1.728h-2.088V31Zm1.008-2.7v-1.629h.999c.63 0 .936.315.936.801 0 .504-.297.828-.99.828h-.945Zm4.116 2.7h3.69v-.9h-2.682v-1.197h2.034v-.9h-2.034v-1.332h2.52v-.9h-3.528V31Zm4.755 0h1.008v-2.007h2.196v-.9h-2.196v-1.422h2.628v-.9h-3.636V31Zm4.57 0h3.69v-.9h-2.682v-1.197h2.034v-.9h-2.034v-1.332h2.52v-.9h-3.528V31Zm4.755 0h1.008v-1.8h.666l1.287 1.8h1.242l-1.386-1.899c.783-.243 1.188-.792 1.188-1.602 0-.99-.585-1.728-1.917-1.728h-2.088V31Zm1.008-2.7v-1.629h.999c.63 0 .936.315.936.801 0 .504-.297.828-.99.828h-.945Zm4.134 2.7h1.008v-1.8h.666l1.287 1.8h1.242l-1.386-1.899c.783-.243 1.188-.792 1.188-1.602 0-.99-.585-1.728-1.917-1.728h-2.088V31Zm1.008-2.7v-1.629h.999c.63 0 .936.315.936.801 0 .504-.297.828-.99.828h-.945Zm4.115 2.7h3.69v-.9h-2.682v-1.197h2.034v-.9h-2.034v-1.332h2.52v-.9h-3.528V31Zm4.756 0h1.8c1.773 0 2.835-1.071 2.835-2.61s-1.107-2.619-2.853-2.619h-1.782V31Zm1.008-.9v-3.429h.792c1.044 0 1.782.729 1.782 1.719 0 .972-.729 1.71-1.845 1.71h-.729ZM98.675 40h1.008v-1.8h.927c1.215 0 2.016-.549 2.016-1.701 0-.99-.567-1.728-1.908-1.728h-2.043V40Zm1.008-2.7v-1.629h.972c.63 0 .909.315.909.801 0 .504-.279.828-.963.828h-.918Zm2.961 2.7h1.062l.369-1.008h2.205l.369 1.008h1.071l-2.061-5.229h-.972L102.644 40Zm1.755-1.89.765-2.088h.018l.774 2.088h-1.557Zm4.719 1.89h1.008v-2.304l1.827-2.925h-1.188l-1.125 1.908h-.018l-1.134-1.908h-1.179l1.809 2.925V40Zm3.4 0h1.008v-3.366h.018l1.44 2.349h.657l1.449-2.367.009.009V40h1.008v-5.229h-1.044l-1.746 2.997h-.018l-1.746-2.997h-1.035V40Zm6.925 0h3.69v-.9h-2.682v-1.197h2.034v-.9h-2.034v-1.332h2.52v-.9h-3.528V40Zm4.71 0h1.008v-3.492l.027-.009L127.717 40h1.044v-5.229h-1.008v3.573l-.018.018-2.565-3.591h-1.017V40Zm6.997 0h1.008v-4.329h1.521v-.9h-4.05v.9h1.521V40Zm5.039.063c.945.009 1.935-.45 1.935-1.593.009-.999-.756-1.242-1.683-1.584-.63-.234-.963-.396-.963-.747.009-.333.315-.522.711-.522.351 0 .756.135 1.215.477l.576-.738a2.91 2.91 0 0 0-1.827-.657c-.945.009-1.737.594-1.737 1.485 0 .999.828 1.359 1.656 1.638.666.225.999.36.99.747 0 .342-.315.576-.846.576a2.024 2.024 0 0 1-1.395-.639l-.594.729a2.735 2.735 0 0 0 1.962.828Zm5.368-.063h1.008v-1.8h.927c1.215 0 2.016-.549 2.016-1.701 0-.99-.567-1.728-1.908-1.728h-2.043V40Zm1.008-2.7v-1.629h.972c.63 0 .909.315.909.801 0 .504-.279.828-.963.828h-.918Zm2.96 2.7h1.062l.369-1.008h2.205L149.53 40h1.071l-2.061-5.229h-.972L145.525 40Zm1.755-1.89.765-2.088h.018l.774 2.088h-1.557Zm4.112 1.89h1.008v-1.8h.666l1.287 1.8h1.242l-1.386-1.899c.783-.243 1.188-.792 1.188-1.602 0-.99-.585-1.728-1.917-1.728h-2.088V40Zm1.008-2.7v-1.629h.999c.63 0 .936.315.936.801 0 .504-.297.828-.99.828h-.945Zm5.09 2.7h1.008v-4.329h1.521v-.9h-4.05v.9h1.521V40Zm3.393 0h1.008v-3.492l.027-.009L164.447 40h1.044v-5.229h-1.008v3.573l-.018.018-2.565-3.591h-1.017V40Zm5.898 0h3.69v-.9h-2.682v-1.197h2.034v-.9h-2.034v-1.332h2.52v-.9h-3.528V40Zm4.755 0h1.008v-1.8h.666l1.287 1.8h1.242l-1.386-1.899c.783-.243 1.188-.792 1.188-1.602 0-.99-.585-1.728-1.917-1.728h-2.088V40Zm1.008-2.7v-1.629h.999c.63 0 .936.315.936.801 0 .504-.297.828-.99.828h-.945Z" fill="#fff"/><defs><clipPath id="a"><path fill="#fff" transform="translate(20 23)" d="M0 0h15.099v18H0z"/></clipPath></defs></svg>